<svg xmlns="http://www.w3.org/2000/svg" xmlns:xlink="http://www.w3.org/1999/xlink" viewBox="0,0,256,256" width="50px" height="50px" fill-rule="nonzero" fill="#ffffff"><g fill="#ffffff" fill-rule="nonzero" stroke="none" stroke-width="1" stroke-linecap="butt" stroke-linejoin="miter" stroke-miterlimit="10" stroke-dasharray="" stroke-dashoffset="0" font-family="none" font-weight="none" font-size="none" text-anchor="none" style="mix-blend-mode: normal"><g transform="scale(5.12,5.12)"><path d="M8.5,4v25l1.30664,9.73828l1.5,1.39844c-3.39,2.857 -4.87017,5.75502 -4.95117,5.91602l1.78711,0.89648c0.023,-0.046 2.33544,-4.53399 7.77344,-7.58398c0.951,0.474 2.26881,1.35617 2.75781,1.70117l0.52148,0.36914l3.23633,-1.86719l2.91797,2.1582l3.11133,-2.11719l2.80859,2.16992l3.08789,-2.54883c1.21,0.413 4.85516,2.06916 8.28516,7.78516l1.71484,-1.0293c-1.71,-2.851 -3.48169,-4.78742 -5.05469,-6.10742l1.57422,-0.66211l0.10352,-0.52148c0.073,-0.363 1.77358,-8.94048 1.39258,-13.89648c-0.369,-4.793 -0.74405,-19.67522 -0.74805,-19.82422l-0.02539,-0.97461zM10.5,6h29.15039c0.09,3.429 0.40651,14.77017 0.72852,18.95117c0.309,4.014 -0.90072,10.90098 -1.26172,12.83398l-1.70508,0.71875c-1.768,-1.095 -3.00538,-1.34528 -3.10937,-1.36328l-0.45703,-0.08203l-2.61719,2.16211l-2.69141,-2.08008l-3.13867,2.13281l-2.83008,-2.0918l-3.27148,1.88672c-0.741,-0.497 -2.09778,-1.36705 -3.05078,-1.74805l-0.42969,-0.17187l-0.41016,0.2168c-0.909,0.482 -1.73319,1.00311 -2.49219,1.53711l-1.2207,-1.14062l-1.19336,-8.83008zM17.5,22c-1.38071,0 -2.5,1.11929 -2.5,2.5c0,1.38071 1.11929,2.5 2.5,2.5c1.38071,0 2.5,-1.11929 2.5,-2.5c0,-1.38071 -1.11929,-2.5 -2.5,-2.5zM33.5,22c-1.38071,0 -2.5,1.11929 -2.5,2.5c0,1.38071 1.11929,2.5 2.5,2.5c1.38071,0 2.5,-1.11929 2.5,-2.5c0,-1.38071 -1.11929,-2.5 -2.5,-2.5zM19.625,31.875l-0.875,0.875c0,0 3.25,3.25 6.75,3c3.5,-0.25 6.375,-2.875 6.375,-2.875l-1.125,-0.75c0,0 -1.75,0.875 -5.5,1.375c-2.771,0.369 -5.625,-1.625 -5.625,-1.625z"></path></g></g></svg>