<svg width="69" height="21" viewBox="0 0 69 21" fill="none" xmlns="http://www.w3.org/2000/svg">
<g clip-path="url(#clip0_3314_23904)">
<path d="M13.4838 10.3423C14.554 9.54326 15.4012 8.31486 15.3907 6.47893V6.42795C15.3955 4.87458 14.7532 3.54231 13.6091 2.64507C12.4674 1.74402 10.8602 1.26562 8.92281 1.26562H0V20.4159H9.13199C11.251 20.4149 13.0473 19.9913 14.3491 19.0846C15.6547 18.1802 16.4171 16.7559 16.4085 14.9672V14.9148C16.4328 12.6043 15.253 11.1967 13.4838 10.3423ZM10.5243 7.15746C10.5124 7.71686 10.3308 8.00991 9.94536 8.26388C9.55559 8.51165 8.90327 8.65698 8.06083 8.65556H4.7878V5.6608H8.32147C9.11436 5.65937 9.68472 5.82471 10.0245 6.06915C10.3594 6.3174 10.5167 6.61664 10.5243 7.10505V7.15746ZM4.78875 12.8687H9.00095C9.98205 12.8673 10.6391 13.0555 11.0122 13.3209C11.3815 13.5892 11.5345 13.9098 11.5426 14.4187V14.4707C11.5326 15.0363 11.352 15.3493 10.9794 15.61C10.6015 15.8658 9.97014 16.0221 9.13199 16.0198H4.78875V12.8687Z" fill="white"/>
<path d="M29.4145 10.3423C30.4851 9.54326 31.3319 8.31486 31.3209 6.47893V6.42795C31.3257 4.87458 30.6834 3.54231 29.5398 2.64507C28.3981 1.74402 26.7909 1.26562 24.853 1.26562H15.9307V20.4159H25.0622C27.1821 20.4149 28.9785 19.9913 30.2803 19.0846C31.5849 18.1802 32.3482 16.7559 32.3382 14.9672V14.9148C32.364 12.6043 31.1827 11.1967 29.4145 10.3423ZM26.4545 7.15746C26.4435 7.71686 26.262 8.00991 25.8755 8.26388C25.4848 8.51165 24.8339 8.65698 23.992 8.65413H20.718V5.6608H24.2531C25.0445 5.65937 25.6163 5.82471 25.9546 6.06915C26.2896 6.3174 26.4459 6.61664 26.4545 7.10505V7.15746ZM27.4732 14.4187V14.4707C27.4632 15.0363 27.2826 15.3493 26.9086 15.61C26.5312 15.8658 25.9003 16.0221 25.0617 16.0198H20.7175V12.8687H24.9316C25.9118 12.8673 26.5693 13.0555 26.9424 13.3209C27.3107 13.5892 27.4651 13.9098 27.4732 14.4187Z" fill="white"/>
<path d="M46.7365 3.99924C44.9406 2.28768 42.3966 1.26417 39.4242 1.26465H31.8604V20.4159H39.4294C42.4009 20.4159 44.9434 19.3771 46.7379 17.6527C48.5347 15.9306 49.5764 13.5253 49.5754 10.8398V10.7883C49.5764 8.10375 48.5343 5.71033 46.7365 3.99924ZM44.4998 10.8403V10.8922C44.4755 13.9198 42.51 15.8896 39.4247 15.9149H36.753V5.76513H39.4242C42.5033 5.788 44.4765 7.81023 44.4998 10.8403Z" fill="white"/>
<path d="M66.142 3.8292C64.3432 2.04712 61.8054 0.950232 58.8755 0.951662C55.9469 0.950232 53.3948 2.06046 51.5837 3.85589C49.7725 5.64941 48.6995 8.12717 48.6995 10.8408V10.8927C48.6985 13.6049 49.7587 16.0708 51.5575 17.8519C53.3553 19.6335 55.895 20.7304 58.8235 20.7295H58.8278C61.7563 20.7295 64.3065 19.6192 66.1158 17.8257C67.9269 16.0312 69.0009 13.5539 69 10.8403V10.7893C69.0009 8.07666 67.9407 5.61129 66.142 3.8292ZM53.7746 10.7889C53.7889 7.86033 55.8335 5.53695 58.824 5.53028C61.8111 5.5341 63.9153 7.91751 63.9253 10.8398V10.8918C63.9125 13.8194 61.8669 16.1427 58.8755 16.1489C55.8893 16.1451 53.7846 13.7622 53.7746 10.8394V10.7889Z" fill="white"/>
</g>
<defs>
<clipPath id="clip0_3314_23904">
<rect width="69" height="19.7778" fill="white" transform="translate(0 0.95166)"/>
</clipPath>
</defs>
</svg>
