<svg width="130" height="26" viewBox="0 0 130 26" fill="none" xmlns="http://www.w3.org/2000/svg">
<path d="M27.3221 2.62506C25.2342 1.64987 23.0018 0.941151 20.6679 0.537598C20.3812 1.05494 20.0464 1.75077 19.8155 2.30431C17.3344 1.93183 14.8762 1.93183 12.4408 2.30431C12.21 1.75077 11.8675 1.05494 11.5783 0.537598C9.24182 0.941151 7.00682 1.65248 4.91897 2.63022C0.707761 8.98304 -0.43383 15.1781 0.136967 21.2851C2.93006 23.3674 5.63691 24.6323 8.29808 25.46C8.95514 24.5572 9.54114 23.5976 10.046 22.5862C9.08451 22.2215 8.16363 21.7714 7.29351 21.2489C7.52434 21.0782 7.75014 20.8997 7.96829 20.716C13.2754 23.1941 19.0417 23.1941 24.2855 20.716C24.5062 20.8997 24.7319 21.0782 24.9603 21.2489C24.0876 21.774 23.1642 22.2241 22.2027 22.5888C22.7075 23.5976 23.291 24.5598 23.9506 25.4625C26.6143 24.6348 29.3237 23.37 32.1168 21.2851C32.7865 14.2055 30.9727 8.06735 27.3221 2.62506ZM10.769 17.5293C9.17585 17.5293 7.86934 16.0446 7.86934 14.2365C7.86934 12.4284 9.14795 10.9411 10.769 10.9411C12.3901 10.9411 13.6966 12.4258 13.6687 14.2365C13.6712 16.0446 12.3901 17.5293 10.769 17.5293ZM21.4848 17.5293C19.8916 17.5293 18.5851 16.0446 18.5851 14.2365C18.5851 12.4284 19.8637 10.9411 21.4848 10.9411C23.1058 10.9411 24.4123 12.4258 24.3844 14.2365C24.3844 16.0446 23.1058 17.5293 21.4848 17.5293Z" fill="white"/>
<path d="M43.3438 6.89624H50.2692C51.9387 6.89624 53.3491 7.16266 54.5062 7.69293C55.6602 8.22316 56.5254 8.96296 57.0989 9.90967C57.6719 10.8564 57.9611 11.9402 57.9611 13.1611C57.9611 14.3561 57.6617 15.4399 57.0631 16.4099C56.4644 17.3825 55.5536 18.1508 54.3285 18.7172C53.1033 19.2837 51.5859 19.5682 49.7723 19.5682H43.3438V6.89624ZM49.7011 16.3478C50.825 16.3478 51.6902 16.0607 52.2938 15.4891C52.8977 14.9148 53.1997 14.1337 53.1997 13.143C53.1997 12.2247 52.9304 11.4927 52.3928 10.9443C51.8552 10.3959 51.0408 10.1192 49.9522 10.1192H47.7858V16.3478H49.7011Z" fill="white"/>
<path d="M68.3271 19.5526C67.3681 19.2991 66.5028 18.9318 65.7344 18.448V15.4424C66.3153 15.9002 67.0939 16.2779 68.0706 16.5753C69.0473 16.8702 69.9913 17.0176 70.9043 17.0176C71.3305 17.0176 71.6528 16.9607 71.8708 16.8469C72.0892 16.7331 72.1984 16.596 72.1984 16.4382C72.1984 16.2572 72.14 16.1071 72.0207 15.9855C71.9013 15.864 71.6705 15.7631 71.3283 15.6777L69.1972 15.1889C67.9769 14.8992 67.1116 14.4982 66.597 13.9835C66.0819 13.4713 65.8255 12.7988 65.8255 11.9659C65.8255 11.2649 66.0487 10.6571 66.5006 10.1371C66.9494 9.61724 67.5887 9.21629 68.4181 8.93434C69.248 8.64982 70.2167 8.50757 71.3305 8.50757C72.3248 8.50757 73.2356 8.61619 74.0655 8.83348C74.895 9.05077 75.5798 9.32752 76.1254 9.66637V12.5091C75.567 12.1703 74.9277 11.9038 74.1973 11.7021C73.4691 11.5029 72.721 11.4046 71.9495 11.4046C70.8357 11.4046 70.2804 11.5986 70.2804 11.984C70.2804 12.1651 70.3666 12.2996 70.5391 12.3901C70.7115 12.4806 71.0285 12.5738 71.4879 12.6721L73.2635 12.998C74.4232 13.2023 75.288 13.5619 75.8562 14.074C76.4248 14.5862 76.7086 15.3441 76.7086 16.3477C76.7086 17.447 76.2395 18.3187 75.2982 18.9654C74.3569 19.6121 73.0225 19.9354 71.2925 19.9354C70.2751 19.9328 69.286 19.806 68.3271 19.5526Z" fill="white"/>
<path d="M80.9013 19.1724C79.8844 18.6654 79.1156 17.9774 78.6031 17.1083C78.0907 16.2392 77.832 15.2614 77.832 14.175C77.832 13.0886 78.0982 12.1161 78.631 11.2599C79.1637 10.4037 79.945 9.73115 80.9752 9.24228C82.0049 8.75341 83.2354 8.51025 84.6688 8.51025C86.4444 8.51025 87.9185 8.8905 89.0906 9.65095V12.9645C88.6772 12.6748 88.1948 12.4394 87.6443 12.2583C87.0939 12.0773 86.5054 11.9867 85.8762 11.9867C84.7753 11.9867 83.9154 12.191 83.2937 12.6023C82.6721 13.0136 82.3604 13.549 82.3604 14.2138C82.3604 14.8656 82.6619 15.3985 83.2659 15.8176C83.8698 16.234 84.7448 16.4435 85.8939 16.4435C86.4851 16.4435 87.0687 16.3556 87.6443 16.1823C88.2178 16.0064 88.7125 15.7917 89.1259 15.5382V18.743C87.8247 19.5397 86.3153 19.938 84.5976 19.938C83.1518 19.9329 81.9187 19.6794 80.9013 19.1724Z" fill="white"/>
<path d="M93.5205 19.1725C92.4956 18.6655 91.7144 17.9723 91.1763 17.0902C90.6387 16.2082 90.3672 15.2253 90.3672 14.1388C90.3672 13.0525 90.636 12.0825 91.1763 11.2315C91.7166 10.3805 92.493 9.71309 93.513 9.22939C94.5299 8.74568 95.7453 8.50513 97.1531 8.50513C98.5613 8.50513 99.7763 8.74568 100.794 9.22939C101.811 9.71309 102.587 10.3753 103.12 11.2211C103.653 12.067 103.919 13.0369 103.919 14.1363C103.919 15.2227 103.653 16.2056 103.12 17.0876C102.587 17.9697 101.808 18.6629 100.783 19.1699C99.7586 19.6769 98.5485 19.9304 97.1509 19.9304C95.7528 19.9304 94.5427 19.6794 93.5205 19.1725ZM98.9163 15.9598C99.3478 15.5201 99.5658 14.9381 99.5658 14.2139C99.5658 13.4896 99.3501 12.9128 98.9163 12.486C98.4852 12.0566 97.8963 11.8419 97.1509 11.8419C96.3922 11.8419 95.7984 12.0566 95.3646 12.486C94.9336 12.9154 94.7178 13.4896 94.7178 14.2139C94.7178 14.9381 94.9336 15.5201 95.3646 15.9598C95.7962 16.3996 96.3922 16.622 97.1509 16.622C97.8963 16.6194 98.4852 16.3996 98.9163 15.9598Z" fill="white"/>
<path d="M114.588 9.1777V13.0887C114.137 12.7861 113.553 12.636 112.83 12.636C111.883 12.636 111.153 12.9284 110.645 13.5129C110.136 14.0975 109.882 15.008 109.882 16.2392V19.5709H105.531V8.97855H109.793V12.3464C110.029 11.1151 110.412 10.2072 110.94 9.62001C111.465 9.03544 112.145 8.74316 112.972 8.74316C113.598 8.74316 114.137 8.88803 114.588 9.1777Z" fill="white"/>
<path d="M129.044 6.53394V19.5707H124.693V17.1987C124.325 18.0911 123.767 18.7714 123.017 19.237C122.265 19.7 121.337 19.9328 120.236 19.9328C119.252 19.9328 118.395 19.6896 117.661 19.2008C116.928 18.7119 116.363 18.042 115.964 17.191C115.568 16.3399 115.368 15.3777 115.368 14.3017C115.355 13.192 115.566 12.1961 116 11.3141C116.431 10.432 117.042 9.744 117.829 9.24992C118.615 8.75588 119.513 8.50756 120.52 8.50756C122.593 8.50756 123.983 9.42581 124.693 11.2597V6.53394H129.044ZM124.044 15.8873C124.488 15.4475 124.709 14.8759 124.709 14.1775C124.709 13.5024 124.493 12.9514 124.062 12.5298C123.63 12.1082 123.039 11.8961 122.296 11.8961C121.563 11.8961 120.977 12.1108 120.538 12.5401C120.099 12.9696 119.881 13.5257 119.881 14.2137C119.881 14.9018 120.099 15.4631 120.538 15.8976C120.977 16.3322 121.555 16.5495 122.278 16.5495C123.011 16.5469 123.6 16.327 124.044 15.8873Z" fill="white"/>
<path d="M61.6261 10.1061C62.8239 10.1061 63.7953 9.21671 63.7953 8.11957C63.7953 7.02244 62.8239 6.13306 61.6261 6.13306C60.428 6.13306 59.457 7.02244 59.457 8.11957C59.457 9.21671 60.428 10.1061 61.6261 10.1061Z" fill="white"/>
<path d="M59.4551 11.4746C60.7841 12.0592 62.4333 12.085 63.7929 11.4746V19.6277H59.4551V11.4746Z" fill="white"/>
</svg>
