<svg width="117" height="24" viewBox="0 0 117 24" fill="none" xmlns="http://www.w3.org/2000/svg">
<g clip-path="url(#clip0_1824_5672)">
<path d="M14.1736 4.91301L7.47645 9.18027L14.1736 13.4475L7.47645 17.7148L0.779297 13.4245L7.47645 9.15721L0.779297 4.91301L7.47645 0.645752L14.1736 4.91301ZM7.44181 19.0872L14.139 14.82L20.8361 19.0872L14.139 23.3545L7.44181 19.0872ZM14.1736 13.4245L20.8708 9.15721L14.1736 4.91301L20.8361 0.645752L27.5333 4.91301L20.8361 9.18027L27.5333 13.4475L20.8361 17.7148L14.1736 13.4245Z" fill="white"/>
<path d="M32.7871 4.91272H38.2026C41.6551 4.91272 44.5071 6.90795 44.5071 11.4635V12.4208C44.5071 17.011 41.8398 19.0754 38.3065 19.0754H32.7871V4.91272ZM35.8124 7.48461V16.492H38.1333C40.0962 16.492 41.4126 15.2118 41.4126 12.3631V11.6135C41.4126 8.76479 40.027 7.48461 38.0294 7.48461H35.8124ZM46.1121 7.62301H48.537L48.9296 10.2872C49.3914 8.47646 50.5692 7.50767 52.7054 7.50767H53.4559V10.564H52.2089C49.7494 10.564 49.149 11.4174 49.149 13.8394V19.11H46.1583V7.62301H46.1121ZM54.0564 13.5972V13.2742C54.0564 9.43371 56.5158 7.33468 59.8644 7.33468C63.2823 7.33468 65.6725 9.43371 65.6725 13.2742V13.5972C65.6725 17.3685 63.3515 19.3983 59.8644 19.3983C56.1579 19.3637 54.0564 17.38 54.0564 13.5972ZM62.6125 13.5626V13.2742C62.6125 11.1406 61.5387 9.86043 59.8298 9.86043C58.1555 9.86043 57.047 11.0368 57.047 13.2742V13.5626C57.047 15.627 58.1208 16.8034 59.8298 16.8034C61.5387 16.7688 62.6125 15.627 62.6125 13.5626ZM67.2428 7.62301H69.7369L70.0256 9.79124C70.626 8.33806 71.9077 7.33468 73.8014 7.33468C76.7228 7.33468 78.6511 9.43371 78.6511 13.3204V13.6433C78.6511 17.4146 76.5149 19.4099 73.8014 19.4099C71.9886 19.4099 70.7415 18.591 70.1295 17.2762V23.0774H67.2082L67.2428 7.62301ZM75.6143 13.5626V13.3088C75.6143 11.0253 74.4365 9.89503 72.8661 9.89503C71.1918 9.89503 70.0833 11.1752 70.0833 13.3088V13.528C70.0833 15.5578 71.1572 16.838 72.8315 16.838C74.552 16.8034 75.6143 15.7077 75.6143 13.5626ZM83.0735 16.9879L82.8195 19.0869H80.2561V3.78247H83.1774V9.65284C83.8241 8.15353 85.1058 7.33468 86.9186 7.33468C89.6668 7.36928 91.699 9.26071 91.699 13.0666V13.4242C91.699 17.2301 89.7707 19.4099 86.8493 19.4099C84.921 19.3637 83.674 18.4757 83.0735 16.9879ZM88.6275 13.4242V13.1358C88.6275 11.0368 87.4844 9.86043 85.8794 9.86043C84.2397 9.86043 83.0966 11.1752 83.0966 13.1704V13.4242C83.0966 15.5578 84.2051 16.8034 85.8448 16.8034C87.5999 16.8034 88.6275 15.7077 88.6275 13.4242ZM92.9807 13.5972V13.2742C92.9807 9.43371 95.4402 7.33468 98.7887 7.33468C102.207 7.33468 104.597 9.43371 104.597 13.2742V13.5972C104.597 17.3685 102.241 19.3983 98.7887 19.3983C95.0822 19.3637 92.9807 17.38 92.9807 13.5972ZM101.56 13.5626V13.2742C101.56 11.1406 100.486 9.86043 98.7772 9.86043C97.1029 9.86043 95.9944 11.0368 95.9944 13.2742V13.5626C95.9944 15.627 97.0683 16.8034 98.7772 16.8034C100.498 16.7688 101.56 15.627 101.56 13.5626ZM108.511 13.1358L104.481 7.62301H107.934L110.255 11.0714L112.61 7.62301H116.028L111.941 13.1012L116.248 19.0869H112.864L110.232 15.281L107.668 19.0869H104.135L108.511 13.1358Z" fill="white"/>
</g>
<defs>
<clipPath id="clip0_1824_5672">
<rect width="115.468" height="22.7087" fill="white" transform="translate(0.779297 0.645752)"/>
</clipPath>
</defs>
</svg>
