<svg width="109" height="25" viewBox="0 0 109 25" fill="none" xmlns="http://www.w3.org/2000/svg">
<g clip-path="url(#clip0_1248_7011)">
<path d="M9.22023 8.9593C9.22023 10.0271 8.76846 10.9717 8.0292 11.711C7.2078 12.5324 6.01677 12.7377 6.01677 13.4359C6.01677 14.3805 7.53636 14.0931 8.99435 15.551C9.95949 16.5162 10.555 17.7894 10.555 19.2679C10.555 22.1839 8.21402 24.5043 5.27751 24.5043C2.34099 24.5043 0 22.1859 0 19.2699C0 17.7914 0.595516 16.5182 1.56066 15.5531C3.01865 14.0951 4.53824 14.3826 4.53824 13.438C4.53824 12.7398 3.34721 12.5344 2.52581 11.713C1.78655 10.9738 1.33478 10.0292 1.33478 8.92028C1.33478 6.78464 3.08026 5.05969 5.2159 5.05969C5.6266 5.05969 5.99623 5.1213 6.30426 5.1213C6.8587 5.1213 7.14619 4.87488 7.14619 4.48471C7.14619 4.25883 7.04352 3.97133 7.04352 3.66331C7.04352 2.96512 7.63904 2.39014 8.35776 2.39014C9.07649 2.39014 9.65147 2.98565 9.65147 3.70438C9.65147 4.46418 9.05595 4.81327 8.60418 4.97755C8.23455 5.10076 7.94706 5.26504 7.94706 5.63467C7.94706 6.33081 9.22023 7.00847 9.22023 8.9593ZM8.80953 19.2699C8.80953 17.237 7.31047 15.5942 5.27751 15.5942C3.24454 15.5942 1.74548 17.237 1.74548 19.2699C1.74548 21.2824 3.24454 22.9457 5.27751 22.9457C7.31047 22.9457 8.80953 21.2803 8.80953 19.2699ZM7.59797 8.91823C7.59797 7.62452 6.55068 6.5567 5.27751 6.5567C4.00433 6.5567 2.95705 7.62452 2.95705 8.91823C2.95705 10.2119 4.00433 11.2798 5.27751 11.2798C6.55068 11.2798 7.59797 10.2119 7.59797 8.91823Z" fill="white"/>
<path d="M16.6128 5.26278C17.2699 5.26278 17.7628 5.75562 17.7628 6.37167C17.7628 6.98772 17.2905 7.48056 16.6334 7.48056C15.9557 7.48056 15.5861 7.04933 14.9084 7.04933C14.2513 7.04933 13.7379 7.52163 13.7379 8.3225V14.791C13.7379 15.2839 13.3477 15.674 12.8549 15.674C12.3826 15.674 11.9924 15.2839 11.9924 14.791V6.08418C11.9924 5.59134 12.3826 5.20117 12.8549 5.20117C13.7379 5.20117 13.5736 6.04311 14.4566 6.04311C15.2986 6.04311 15.6066 5.26278 16.6128 5.26278Z" fill="white"/>
<path d="M18.5226 10.4377C18.5226 7.33695 20.6582 5.09863 23.5947 5.09863C26.2848 5.09863 28.4205 7.07 28.4205 9.76009C28.4205 10.3967 28.0098 10.8279 27.4143 10.8279H20.7404C20.4529 10.8279 20.3502 10.9306 20.3502 11.1565C20.3502 11.6698 20.7609 12.6145 21.377 13.2305C21.993 13.8466 22.8349 14.2162 24.026 14.2162C24.909 14.2162 25.6893 13.8876 26.2848 13.4564C26.4696 13.3126 26.675 13.2305 26.8803 13.2305C27.3116 13.2305 27.6607 13.6207 27.6607 14.0314C27.6607 14.2778 27.5785 14.4831 27.3732 14.668C26.5107 15.3867 25.2991 15.7769 23.9849 15.7769C20.802 15.7769 18.5226 13.4769 18.5226 10.4377ZM25.792 7.4807C25.217 6.90572 24.4777 6.61823 23.5947 6.61823C22.7117 6.61823 21.8903 6.96732 21.2948 7.56284C20.8225 8.03514 20.4939 8.65119 20.4939 9.0619C20.4939 9.26725 20.6172 9.34939 20.8841 9.34939H26.2232C26.4696 9.34939 26.5929 9.26725 26.5929 9.0619C26.5929 8.56905 26.2027 7.8914 25.792 7.4807Z" fill="white"/>
<path d="M30.1865 10.4377C30.1865 7.33695 32.3222 5.09863 35.2587 5.09863C37.9488 5.09863 40.0844 7.07 40.0844 9.76009C40.0844 10.3967 39.6737 10.8279 39.0782 10.8279H32.4043C32.1168 10.8279 32.0141 10.9306 32.0141 11.1565C32.0141 11.6698 32.4248 12.6145 33.0409 13.2305C33.6569 13.8466 34.4989 14.2162 35.6899 14.2162C36.5729 14.2162 37.3533 13.8876 37.9488 13.4564C38.1336 13.3126 38.3389 13.2305 38.5443 13.2305C38.9755 13.2305 39.3246 13.6207 39.3246 14.0314C39.3246 14.2778 39.2425 14.4831 39.0371 14.668C38.1747 15.3867 36.9631 15.7769 35.6488 15.7769C32.4659 15.7769 30.1865 13.4769 30.1865 10.4377ZM37.4559 7.4807C36.8809 6.90572 36.1417 6.61823 35.2587 6.61823C34.3757 6.61823 33.5543 6.96732 32.9588 7.56284C32.4864 8.03514 32.1579 8.65119 32.1579 9.0619C32.1579 9.26725 32.2811 9.34939 32.5481 9.34939H37.8872C38.1336 9.34939 38.2568 9.26725 38.2568 9.0619C38.2568 8.56905 37.8666 7.8914 37.4559 7.4807Z" fill="white"/>
<path d="M50.3725 15.6742C49.8797 15.6742 49.4895 15.284 49.4895 14.7912V9.20564C49.4895 7.74765 48.3396 6.63876 46.8611 6.63876C45.362 6.63876 44.212 7.76819 44.212 9.20564V14.7912C44.212 15.284 43.8219 15.6742 43.329 15.6742C42.8567 15.6742 42.4666 15.284 42.4666 14.7912V6.06378C42.4666 5.59147 42.8567 5.20131 43.3085 5.20131C44.171 5.20131 44.1299 5.98164 44.5817 5.98164C45.0334 5.98164 45.6495 5.09863 47.2512 5.09863C49.4895 5.09863 51.235 6.96732 51.235 9.20564V14.7912C51.235 15.284 50.8448 15.6742 50.3725 15.6742Z" fill="white"/>
<path d="M62.1595 15.674C61.6667 15.674 61.2765 15.2838 61.2765 14.791V9.20548C61.2765 7.74749 60.1266 6.6386 58.648 6.6386C57.149 6.6386 55.999 7.76802 55.999 9.20548V14.791C55.999 15.2838 55.6088 15.674 55.116 15.674C54.6437 15.674 54.2535 15.2838 54.2535 14.791V0.95039C54.2535 0.457549 54.6437 0.0673828 55.116 0.0673828C55.6088 0.0673828 55.999 0.457549 55.999 0.95039V5.48863C55.999 5.73505 56.1017 5.8788 56.3686 5.8788C56.8204 5.8788 57.4365 5.09847 59.0382 5.09847C61.2765 5.09847 63.022 6.96716 63.022 9.20548V14.791C63.022 15.2838 62.6318 15.674 62.1595 15.674Z" fill="white"/>
<path d="M65.4226 10.4377C65.4226 7.46016 67.8047 5.09863 70.8028 5.09863C73.8009 5.09863 76.183 7.46016 76.183 10.4377C76.183 13.4153 73.8009 15.7769 70.8028 15.7769C67.8067 15.7769 65.4226 13.4153 65.4226 10.4377ZM74.4395 10.4377C74.4395 8.3637 72.8994 6.6593 70.8048 6.6593C68.7308 6.6593 67.1907 8.3637 67.1907 10.4377C67.1907 12.5118 68.7308 14.2162 70.8048 14.2162C72.8994 14.2162 74.4395 12.5118 74.4395 10.4377Z" fill="white"/>
<path d="M79.4479 5.20117C79.9408 5.20117 80.3309 5.59134 80.3309 6.08418V11.6697C80.3309 13.1277 81.4809 14.2366 82.9594 14.2366C84.4585 14.2366 85.6084 13.1072 85.6084 11.6697V6.08418C85.6084 5.59134 85.9986 5.20117 86.4914 5.20117C86.9637 5.20117 87.3539 5.59134 87.3539 6.08418V14.8116C87.3539 15.2839 86.9637 15.674 86.512 15.674C85.6495 15.674 85.6906 14.8937 85.2388 14.8937C84.787 14.8937 84.171 15.7767 82.5692 15.7767C80.3309 15.7767 78.5854 13.908 78.5854 11.6697V6.08418C78.5875 5.59134 78.9756 5.20117 79.4479 5.20117Z" fill="white"/>
<path d="M90.4547 15.0171C90.0646 14.7706 89.7976 14.5242 89.7976 14.0519C89.7976 13.6001 90.1467 13.251 90.5779 13.251C91.0913 13.251 91.3172 13.5591 91.7484 13.785C92.2823 14.093 92.8984 14.2573 93.6582 14.2573C95.0546 14.2573 95.7528 13.6207 95.7528 12.8403C95.7528 11.7315 94.726 11.5261 93.3296 11.1565C91.6047 10.7047 89.9413 10.1913 89.9413 8.19942C89.9413 6.43341 91.2967 5.09863 93.6993 5.09863C94.6439 5.09863 95.5269 5.34505 96.2251 5.77629C96.4715 5.92003 96.7179 6.22806 96.7179 6.57716C96.7179 7.02893 96.3483 7.41909 95.876 7.41909C95.568 7.41909 95.3215 7.21374 95.0135 7.00839C94.7055 6.80304 94.2537 6.61823 93.6377 6.61823C92.2618 6.61823 91.6663 7.21374 91.6663 8.01461C91.6663 9.0619 92.6725 9.30832 94.11 9.65741C95.7938 10.0681 97.4572 10.602 97.4572 12.635C97.4572 14.401 96.1429 15.7769 93.6171 15.7769C92.385 15.7769 91.2761 15.5304 90.4547 15.0171Z" fill="white"/>
<path d="M99.1001 10.4377C99.1001 7.33695 101.236 5.09863 104.172 5.09863C106.862 5.09863 108.998 7.07 108.998 9.76009C108.998 10.3967 108.587 10.8279 107.992 10.8279H101.318C101.03 10.8279 100.928 10.9306 100.928 11.1565C100.928 11.6698 101.338 12.6145 101.954 13.2305C102.571 13.8466 103.412 14.2162 104.603 14.2162C105.486 14.2162 106.267 13.8876 106.862 13.4564C107.047 13.3126 107.253 13.2305 107.458 13.2305C107.889 13.2305 108.238 13.6207 108.238 14.0314C108.238 14.2778 108.156 14.4831 107.951 14.668C107.088 15.3867 105.877 15.7769 104.562 15.7769C101.382 15.7769 99.1001 13.4769 99.1001 10.4377ZM106.372 7.4807C105.797 6.90572 105.057 6.61823 104.174 6.61823C103.291 6.61823 102.47 6.96732 101.874 7.56284C101.402 8.03514 101.074 8.65119 101.074 9.0619C101.074 9.26725 101.197 9.34939 101.464 9.34939H106.803C107.049 9.34939 107.172 9.26725 107.172 9.0619C107.172 8.56905 106.782 7.8914 106.372 7.4807Z" fill="white"/>
</g>
<defs>
<clipPath id="clip0_1248_7011">
<rect width="108.998" height="24.437" fill="white" transform="translate(0 0.0673828)"/>
</clipPath>
</defs>
</svg>
