<svg width="80" height="20" viewBox="0 0 80 20" fill="none" xmlns="http://www.w3.org/2000/svg">
<g clip-path="url(#clip0_23_2322)">
<g clip-path="url(#clip1_23_2322)">
<path d="M0 4.19666H6.51832V15.6037H0V18.8629H17.1106V15.6037H10.5923V4.19666H17.1106V0.9375H0V4.19666Z" fill="white"/>
<path d="M41.5454 18.8629H58.656V15.6037H44.8046V11.5298H56.2116V8.27061H44.8046V4.19666H58.656V0.9375H41.5454V18.8629Z" fill="white"/>
<path d="M70.5501 0.122803C68.01 0.174016 65.5929 1.22638 63.8247 3.05088C62.0566 4.87538 61.0807 7.32435 61.1092 9.86486C61.054 11.1402 61.2575 12.4136 61.7075 13.6083C62.1575 14.8029 62.8446 15.8941 63.7276 16.8161C64.6105 17.7381 65.6709 18.4718 66.845 18.9731C68.019 19.4743 69.2824 19.7327 70.559 19.7327C71.8356 19.7327 73.0989 19.4743 74.273 18.9731C75.447 18.4718 76.5075 17.7381 77.3904 16.8161C78.2734 15.8941 78.9605 14.8029 79.4105 13.6083C79.8605 12.4136 80.064 11.1402 80.0088 9.86486C80.037 8.6016 79.8137 7.34533 79.3519 6.16917C78.8901 4.99301 78.1989 3.92044 77.3187 3.01387C76.4385 2.10729 75.3868 1.38482 74.2248 0.88849C73.0628 0.39216 71.8137 0.131882 70.5501 0.122803V0.122803ZM70.5501 16.3389C69.7194 16.3263 68.8994 16.1493 68.1373 15.8183C67.3752 15.4873 66.6862 15.0088 66.1099 14.4103C65.5336 13.8118 65.0815 13.1051 64.7796 12.3311C64.4776 11.5571 64.3319 10.7309 64.3506 9.90028C64.3506 8.25608 65.0038 6.67921 66.1664 5.51658C67.3291 4.35395 68.9059 3.70079 70.5501 3.70079C72.1943 3.70079 73.7712 4.35395 74.9338 5.51658C76.0965 6.67921 76.7496 8.25608 76.7496 9.90028C76.7684 10.7309 76.6226 11.5571 76.3207 12.3311C76.0188 13.1051 75.5666 13.8118 74.9903 14.4103C74.4141 15.0088 73.725 15.4873 72.963 15.8183C72.2009 16.1493 71.3809 16.3263 70.5501 16.3389Z" fill="white"/>
<path d="M29.5716 0.9375H21.1846V18.8629H29.4122C30.5976 18.8868 31.7755 18.6679 32.8731 18.2195C33.9708 17.7712 34.965 17.1029 35.7947 16.2558C36.6244 15.4087 37.2718 14.4008 37.6973 13.294C38.1228 12.1873 38.3172 11.0052 38.2686 9.82048C38.2863 4.85203 34.8677 1.09692 29.5716 0.9375ZM29.4919 15.6037H24.4437V4.19666H29.4919C32.751 4.27637 34.8057 6.64103 34.8057 9.90019C34.8057 13.1594 32.7688 15.524 29.4919 15.6037Z" fill="white"/>
</g>
</g>
<defs>
<clipPath id="clip0_23_2322">
<rect width="80" height="19.555" fill="white" transform="translate(0 0.122803)"/>
</clipPath>
<clipPath id="clip1_23_2322">
<rect width="80" height="19.555" fill="white" transform="translate(0 0.122803)"/>
</clipPath>
</defs>
</svg>
