<svg width="98" height="30" viewBox="0 0 98 30" fill="none" xmlns="http://www.w3.org/2000/svg">
<path d="M59.6409 16.7409C59.6409 16.7409 59.444 16.0189 59.444 15.4876V7.13623H62.7883V23.22L52.0803 14.353C51.5084 13.8654 51.1708 13.3216 51.1708 13.3216C51.1708 13.3216 51.3396 13.9217 51.3396 14.4405L51.3365 22.8575H47.9922V6.83618L58.6001 15.5251C59.169 16.0095 59.6409 16.7409 59.6409 16.7409Z" fill="white"/>
<path d="M89.9263 7.13623C95.224 7.13623 96.5836 9.22719 96.5836 12.2308C96.5836 14.4093 94.9802 16.5409 91.7485 16.794L91.3953 16.8096C91.3953 16.8096 91.7078 16.8659 92.0329 17.1816L97.9026 22.8575H93.3675L85.1755 14.5405H89.2574C92.9111 14.5405 93.0143 12.6152 93.0424 12.1277C93.1112 10.8806 92.7111 9.88042 89.9232 9.88042H85.2599V22.8575H81.7812V7.13623H89.9263Z" fill="white"/>
<path d="M64.293 15.222C64.293 8.63343 69.8063 6.90503 74.4415 6.90503C76.298 6.90503 77.942 7.07068 79.6673 7.43636L79.6735 10.7744C78.6796 10.4712 76.6824 9.79924 74.4415 9.79924C70.0501 9.79924 67.9154 11.5058 67.9154 15.2189C67.9154 18.26 70.2127 20.1978 74.4415 20.1978C76.6824 20.1978 78.9266 19.6633 80.0111 19.2632L80.0049 22.5044C78.2765 22.8701 76.2949 23.0951 74.4415 23.0951C69.4907 23.0982 64.293 20.6947 64.293 15.222Z" fill="white"/>
<path d="M26.6528 7.54272L29.9158 10.6151C29.8283 10.6557 29.7252 10.7026 29.6033 10.7651C29.4158 10.862 29.1907 10.9933 28.9188 11.1808C28.3812 11.5527 27.6811 12.1403 26.7841 13.1092L20.4112 19.8541C19.3173 21.0074 18.2077 21.9231 17.1732 22.4076L13.9102 19.3352C13.9977 19.2946 14.1039 19.2477 14.2196 19.1852C14.4071 19.0914 14.6321 18.957 14.9041 18.7695C15.4417 18.3976 16.1449 17.81 17.0388 16.8411L23.4117 10.1056C24.5087 8.95232 25.6214 8.02405 26.6528 7.54272Z" fill="white"/>
<path d="M14.0296 23.8514C15.4736 23.8514 16.7956 23.5639 17.6958 23.0982C18.1052 22.8825 18.6928 22.5137 19.1992 22.123C19.7024 21.7292 20.4118 21.1197 21.0151 20.479L27.3973 13.7529C29.007 12.0589 29.9727 11.5338 30.5603 11.3275L33.8327 14.428C33.1483 15.1594 25.0032 23.8358 25.0032 23.8358C24.4469 24.4359 23.8624 25.0141 23.4655 25.3798C23.0841 25.733 22.4309 26.2549 22.0902 26.505C20.1743 27.9114 17.6145 29.0491 14.1671 29.0491C6.3596 29.0491 0.0429688 22.6919 0.0429688 15.3751C0.0429688 6.29549 7.13785 1.02589 13.5983 1.02589C15.5767 0.966511 17.1676 1.30094 18.4209 1.72601C19.5836 2.12295 20.4587 2.59802 21.0963 2.92308C20.3462 3.4044 19.618 4.06076 18.4178 5.34221L17.1113 6.74869C16.8081 6.63304 15.4736 6.16734 13.7545 6.22048C9.61012 6.34237 5.07502 9.70541 5.24067 15.2157C5.39382 20.3665 9.64138 23.8514 14.0296 23.8514Z" fill="white"/>
<path d="M26.0952 6.89875C25.6826 7.11129 25.095 7.48322 24.5918 7.87391C24.0886 8.26459 23.3791 8.87719 22.7727 9.51479L16.3936 16.2409C14.784 17.9349 13.8151 18.46 13.2306 18.6663L9.95508 15.5689C10.6396 14.8375 18.7846 6.16113 18.7846 6.16113C19.341 5.56104 19.9254 4.98595 20.3224 4.61714C20.7037 4.26396 21.36 3.742 21.6976 3.49196C23.6104 2.08861 26.1733 0.950928 29.6207 0.950928C37.4313 0.950928 43.7417 7.30507 43.7417 14.625C43.7417 23.7077 36.65 28.9742 30.1864 28.9742C28.208 29.0335 26.6171 28.6991 25.3607 28.274C24.198 27.8771 23.3166 27.3989 22.6821 27.0738C23.476 26.5394 24.1573 25.9487 25.3669 24.6578L26.6765 23.2514C26.9765 23.3639 28.3143 23.8327 30.0302 23.7827C34.1746 23.6608 38.7097 20.2978 38.5471 14.7844C38.394 9.63044 34.1433 6.14551 29.7582 6.14551C28.3174 6.14551 26.9953 6.42993 26.0952 6.89875Z" fill="white"/>
</svg>
