<svg width="211" height="28" viewBox="0 0 211 28" fill="none" xmlns="http://www.w3.org/2000/svg">
<path d="M16.3393 3.0644C16.3393 0.786122 14.1749 0.216553 12.4662 0.216553V0.558295C13.4914 0.558295 14.2888 0.900036 14.2888 1.69743C14.2888 2.15309 13.9471 2.83657 12.9218 2.83657C12.1244 2.83657 10.4157 2.38092 9.16268 1.92526C7.6818 1.35569 6.31484 0.900036 5.1757 0.900036C2.89742 0.900036 1.30262 2.60875 1.30262 4.54528C1.30262 6.25399 2.55568 6.82356 3.01133 7.05139L3.12525 6.82356C2.89742 6.59573 2.55568 6.3679 2.55568 5.68442C2.55568 5.22877 3.01133 4.43137 4.15047 4.43137C5.1757 4.43137 6.54266 4.88702 8.36529 5.45659C9.96008 5.91225 11.6688 6.25399 12.5801 6.3679V9.89925L10.8714 11.3801V11.4941L12.5801 12.9749V17.8732C11.6688 18.4428 10.6436 18.5567 9.73225 18.5567C8.02355 18.5567 6.54266 18.1011 5.28961 16.7341L9.96008 14.4558V6.59573L4.26439 9.10184C4.72004 7.62096 5.97309 6.59573 7.22615 5.91225L7.11223 5.57051C3.69482 6.48182 0.619141 9.67143 0.619141 13.5445C0.619141 18.1011 4.3783 21.5185 8.59311 21.5185C13.1497 21.5185 16.1114 17.8732 16.1114 14.1141H15.8836C15.2001 15.595 14.1749 16.9619 12.9218 17.6454V12.9749L14.7445 11.4941V11.3801L12.9218 9.89925V6.3679C14.6306 6.3679 16.3393 5.22877 16.3393 3.0644ZM6.42875 15.595L5.06178 16.2784C4.26439 15.2532 3.80873 13.8862 3.80873 11.9497C3.80873 11.1523 3.80873 10.241 4.03656 9.55751L6.42875 8.53227V15.595ZM18.5036 18.215L17.0227 19.3541L17.2506 19.5819L17.9341 19.0124L20.4402 21.2906L23.8576 19.0124L23.7437 18.7845L22.8324 19.3541L21.6932 18.215V10.4688L22.6045 9.78534L24.5411 11.3801V18.3289C24.5411 22.6576 23.6298 23.3411 21.6932 24.0246V24.3663C24.8828 24.4802 27.8446 23.455 27.8446 17.8732V10.3549L28.8698 9.55751L28.642 9.32968L27.7307 10.0132L24.8828 7.62096L21.6932 10.0132V0.672208H21.4654L17.4784 3.40614V3.63397C17.9341 3.8618 18.6175 4.08963 18.6175 5.34268L18.5036 18.215ZM39.3499 16.9619L36.502 19.1263L33.6542 16.848V15.481L39.0081 11.8358V11.7219L36.2742 7.62096L30.3507 10.8106V18.3289L29.2115 19.2402L29.4394 19.468L30.4646 18.6706L34.3377 21.5185L39.4638 17.4176L39.3499 16.9619ZM33.6542 15.0254V9.4436L33.882 9.32968L36.3881 13.3167L33.6542 15.0254ZM61.1074 2.03918C61.1074 1.69743 60.9935 1.35569 60.8796 1.01395H60.6518C60.31 1.92526 59.8544 2.38092 58.7152 2.38092C57.69 2.38092 57.0065 1.81135 56.5509 1.35569L53.2474 5.11485L53.4752 5.34268L54.6143 4.31745C55.2978 4.88702 55.8674 5.34268 57.4622 5.45659V14.9115L50.7413 3.40614C50.1717 2.49483 49.3743 1.24178 47.7795 1.24178C45.9569 1.24178 44.3621 2.83657 44.5899 5.34268H44.9317C45.0456 4.6592 45.3873 3.8618 46.1847 3.8618C46.7543 3.8618 47.3238 4.43137 47.6656 5.00094V8.7601C45.6151 8.7601 44.2482 9.67143 44.2482 11.3801C44.2482 12.2914 44.7038 13.6584 46.0708 14.0002V13.7723C45.843 13.5445 45.7291 13.3167 45.7291 12.9749C45.7291 12.4054 46.1847 11.9497 46.9821 11.9497H47.5517V16.7341C45.1595 16.7341 43.2229 18.1011 43.2229 20.3793C43.2229 22.5437 45.0456 23.5689 47.096 23.455V23.2272C45.843 23.1133 45.2734 22.5437 45.2734 21.7463C45.2734 20.7211 45.9569 20.2654 46.8682 20.2654C47.7795 20.2654 48.5769 20.835 49.1465 21.5185L52.45 17.8732L52.2221 17.6454L51.4247 18.5567C50.1717 17.4176 49.4882 17.0758 48.0073 16.848V5.45659L57.1204 21.4046H57.8039V5.45659C59.5126 5.34268 61.1074 3.97571 61.1074 2.03918ZM69.4231 16.9619L66.5753 19.1263L63.7275 16.848V15.481L69.0814 11.8358V11.7219L66.3475 7.62096L60.4239 10.8106V18.3289L59.2848 19.2402L59.5126 19.468L60.5379 18.6706L64.4109 21.5185L69.5371 17.4176L69.4231 16.9619ZM63.7275 15.0254V9.4436L63.9553 9.32968L66.4614 13.3167L63.7275 15.0254ZM87.9911 8.87401L87.1937 9.4436L85.0294 7.62096L82.5232 9.89925L83.5485 10.9245V19.468L80.8145 17.7593V10.6967L81.7259 10.1271L79.1058 7.62096L76.5997 9.89925L77.625 10.9245V19.1263L77.2832 19.3541L74.891 17.6454V10.8106C74.891 9.21575 74.0936 8.7601 73.1823 8.19053C72.3849 7.62096 71.9293 7.27922 71.9293 6.48182C71.9293 5.79833 72.6127 5.45659 72.9545 5.22877V5.00094C72.0432 5.00094 69.651 5.91225 69.651 8.07661C69.651 9.21575 70.2205 9.67143 70.7901 10.241C71.3597 10.8106 71.9293 11.2662 71.9293 12.2914V18.8985L70.6762 19.8098L70.904 20.0376L72.0432 19.1263L74.6632 21.4046L77.511 19.468L80.7006 21.4046L86.7381 17.8732V10.241L88.2189 9.10184L87.9911 8.87401ZM109.179 2.60875L108.04 3.63397L105.534 1.35569L101.775 4.08963V1.58352H101.433L101.547 20.0376C101.205 20.0376 100.18 19.8098 99.3825 19.5819L99.1547 4.20354C99.1547 3.0644 98.3573 1.46961 96.3068 1.46961C94.2564 1.46961 92.8894 3.0644 92.8894 4.6592H93.2312C93.3451 3.97571 93.6868 3.40614 94.3703 3.40614C95.0538 3.40614 95.6234 3.8618 95.6234 5.34268V9.78534C93.5729 9.89926 92.3198 11.0384 92.3198 12.5193C92.3198 13.4306 92.7755 14.7976 94.1425 14.7976V14.5697C93.6868 14.3419 93.5729 14.0002 93.5729 13.7723C93.5729 13.0888 94.1425 12.861 95.0538 12.861H95.5094V19.9237C93.8007 20.4932 93.1172 21.7463 93.1172 23.1133C93.1172 25.0498 94.5981 26.4168 96.8764 26.4168C98.4712 26.4168 99.8382 26.1889 101.205 25.8472C102.344 25.6194 103.825 25.2776 104.509 25.2776C105.42 25.2776 105.762 25.7333 105.762 26.3029C105.762 27.1003 105.42 27.442 104.964 27.5559V27.7837C106.787 27.442 107.926 26.3029 107.926 24.5941C107.926 22.8854 106.217 21.8602 104.395 21.8602C103.483 21.8602 101.547 22.202 100.18 22.4298C98.5851 22.7715 96.9903 22.9994 96.5347 22.9994C95.7373 22.9994 94.826 22.6576 94.826 21.5185C94.826 20.6072 95.6234 19.8098 97.5599 19.8098C98.5851 19.8098 99.8382 19.9237 101.091 20.2654C102.458 20.6072 103.711 20.9489 104.85 20.9489C106.559 20.9489 108.04 20.3793 108.04 17.9871V3.97571L109.407 2.83657L109.179 2.60875ZM104.509 9.55751C104.167 9.89925 103.711 10.241 103.142 10.241C102.572 10.241 102.003 9.89925 101.775 9.55751V4.54528L102.914 3.74788L104.509 5.22877V9.55751ZM104.509 12.9749C104.281 12.7471 103.711 12.4054 103.142 12.4054C102.572 12.4054 102.003 12.7471 101.775 12.9749V10.0132C102.003 10.241 102.572 10.5827 103.142 10.5827C103.711 10.5827 104.281 10.241 104.509 10.0132V12.9749ZM104.509 18.3289C104.509 19.2402 103.939 20.1515 102.686 20.1515H101.775V13.4306C102.003 13.2028 102.572 12.861 103.142 12.861C103.711 12.861 104.167 13.2028 104.509 13.4306V18.3289ZM120.115 10.241L116.47 7.62096L110.888 10.8106V18.215L109.749 19.1263L109.863 19.3541L110.774 18.6706L114.419 21.4046L120.115 17.9871V10.241ZM113.963 17.4176V9.21575L116.811 11.2662V19.3541L113.963 17.4176ZM130.937 7.84879H130.709C130.367 8.07661 130.025 8.30444 129.684 8.30444C129.228 8.30444 128.658 8.07661 128.431 7.73487H128.203L126.266 9.89925L124.33 7.73487L120.912 10.0132L121.026 10.241L121.937 9.67143L123.077 10.9245V18.1011L121.596 19.2402L121.824 19.468L122.507 18.8985L125.241 21.1767L128.772 18.7845L128.658 18.5567L127.633 19.1263L126.266 17.9871V10.0132C126.836 10.5827 127.519 11.1523 128.317 11.1523C129.911 11.2662 130.823 9.67143 130.937 7.84879ZM144.606 18.7845L140.733 21.4046L135.493 13.4306L139.252 7.62096H139.48C139.936 8.07661 140.619 8.53227 141.417 8.53227C142.214 8.53227 142.784 8.07661 143.125 7.62096H143.353C143.239 9.89925 141.645 11.2662 140.505 11.2662C139.366 11.2662 138.797 10.6967 138.113 10.3549L137.771 10.9245L143.467 19.3541L144.606 18.6706V18.7845ZM132.076 18.215L130.595 19.3541L130.823 19.5819L131.506 19.0124L134.012 21.2906L137.43 19.0124L137.202 18.7845L136.291 19.3541L135.151 18.215V0.672208H135.038L130.937 3.40614V3.63397C131.392 3.8618 132.076 3.97571 132.076 5.34268V18.215ZM163.516 3.0644C163.516 0.786122 161.352 0.216553 159.643 0.216553V0.558295C160.668 0.558295 161.466 0.900036 161.466 1.69743C161.466 2.15309 161.124 2.83657 160.099 2.83657C159.301 2.83657 157.593 2.38092 156.339 1.92526C154.859 1.46961 153.492 1.01395 152.352 1.01395C150.074 1.01395 148.479 2.72266 148.479 4.6592C148.479 6.3679 149.732 6.93747 150.188 7.1653L150.302 6.93747C149.96 6.70965 149.619 6.48182 149.619 5.79833C149.619 5.34268 150.074 4.54528 151.213 4.54528C152.239 4.54528 153.606 5.00094 155.428 5.57051C157.023 6.02616 158.732 6.3679 159.643 6.48182V10.0132L157.934 11.4941V11.608L159.643 13.0888V17.9871C158.732 18.5567 157.706 18.6706 156.795 18.6706C155.086 18.6706 153.606 18.215 152.352 16.848L157.023 14.5697V6.59573L151.327 9.10184C151.897 7.62096 153.15 6.59573 154.289 5.79833L154.175 5.57051C150.758 6.48182 147.682 9.55751 147.682 13.4306C147.682 17.9871 151.441 21.4046 155.656 21.4046C160.213 21.4046 163.174 17.7593 163.174 14.0002H162.946C162.263 15.481 161.238 16.848 159.985 17.5315V12.861L161.807 11.3801V11.2662L160.099 9.78534V6.3679C161.807 6.3679 163.516 5.22877 163.516 3.0644ZM153.606 15.595L152.239 16.2784C151.441 15.2532 150.986 13.8862 150.986 11.9497C150.986 11.1523 151.099 10.241 151.327 9.55751L153.719 8.53227L153.606 15.595ZM167.503 1.92526H167.389L165.111 3.8618V3.97571L167.047 6.14008H167.275L169.553 4.20354V4.08963L167.503 1.92526ZM170.92 18.7845L170.009 19.3541L168.87 18.215V10.3549L170.009 9.55751L169.781 9.32968L168.984 10.0132L166.933 7.62096L163.63 9.89925L163.858 10.241L164.655 9.67143L165.68 10.9245V18.3289L164.2 19.468L164.313 19.6959L165.111 19.1263L167.617 21.4046L171.034 19.1263L170.92 18.7845ZM189.944 18.6706L189.147 19.2402L187.894 18.1011V10.3549L189.033 9.4436L188.805 9.21575L187.894 10.0132L185.274 7.62096L181.856 10.0132L179.236 7.62096L176.047 10.0132L173.996 7.62096L170.693 9.89925L170.807 10.241L171.604 9.67143L172.743 10.9245V18.3289L171.832 19.2402L174.452 21.4046L176.958 19.1263L175.933 18.1011V10.3549L176.958 9.67143L178.667 11.2662V18.1011L177.755 19.0124L180.375 21.1767L182.881 18.8985L181.856 17.8732V10.3549L182.768 9.78534L184.59 11.3801V18.215L183.793 19.0124L186.413 21.4046L189.944 19.0124V18.6706ZM199.855 16.9619L197.007 19.1263L194.159 16.848V15.481L199.513 11.8358V11.7219L196.779 7.62096L190.855 10.8106V18.5567L194.842 21.4046L199.968 17.3037L199.855 16.9619ZM194.159 15.0254V9.4436L194.387 9.32968L196.893 13.3167L194.159 15.0254ZM210.221 14.0002L208.056 12.2914C209.537 11.0384 210.107 9.32968 210.107 8.19053V7.50704H209.879C209.651 8.07661 209.196 8.64618 208.284 8.64618C207.373 8.64618 206.803 8.19053 206.234 7.50704L201.108 10.3549V14.4558L203.044 15.9367C201.108 17.6454 200.766 18.7845 200.766 19.6959C200.766 20.835 201.335 21.6324 202.247 21.9741L202.361 21.7463C202.133 21.5185 201.905 21.4046 201.905 20.835C201.905 20.4932 202.361 19.9237 203.272 19.9237C204.411 19.9237 205.095 20.7211 205.436 21.0628L210.335 18.1011V14.0002H210.221ZM208.968 10.5827C208.17 11.9497 206.462 13.3167 205.436 14.0002L204.183 12.9749V8.98792C204.639 10.1271 205.892 11.0384 207.145 11.0384C207.942 11.0384 208.398 10.9245 208.968 10.5827ZM207.031 19.6959C206.462 18.4428 205.095 17.5315 203.728 17.5315C203.386 17.5315 202.475 17.5315 201.563 18.1011C202.133 17.1897 203.614 15.5949 205.55 14.4558L206.917 15.595L207.031 19.6959Z" fill="white"/>
</svg>
