<svg xmlns:xlink="http://www.w3.org/1999/xlink" xmlns="http://www.w3.org/2000/svg" width="182" height="44" viewBox="0 0 182 44" fill="none">
<path d="M30.9859 30.1108C28.481 30.4742 27.2269 28.3832 28.0489 26.5787C28.7319 25.0777 29.0685 23.4619 29.0685 21.7423C29.0681 20.022 28.7591 18.4375 28.075 16.9358C27.4683 15.4729 28.4853 13.0137 30.991 13.3764C32.3352 13.5718 33.3812 12.3104 33.3812 10.5669C33.3812 8.82585 32.3352 7.14185 30.991 6.79292C29.5797 6.42838 28.384 7.6578 28.384 9.55783V9.5582H28.3837C28.3837 12.8703 26.5657 14.2057 25.0977 12.96C23.8022 11.8576 22.2896 11.1467 20.5544 10.8697C18.7092 10.5756 16.8967 10.8584 15.2791 11.6002C13.5886 12.2102 10.4101 10.1526 10.4101 5.92042C10.4101 3.45433 8.30019 0.907992 5.53419 0.19162C2.57284 -0.575222 0.012345 1.02527 0.0112557 3.81814C0.0119819 6.61319 2.57248 9.24921 5.53346 9.67911C9.93154 10.3167 11.9928 13.0867 11.1686 15.1262C9.94934 16.9245 9.20718 19.184 9.20682 21.7438C9.20682 24.1783 9.88398 26.3365 10.9979 28.0906C11.7659 29.8439 10.0666 33.1349 5.52475 33.7943H5.52402C2.56159 34.222 0.000726176 36.8588 0 39.6531C0 42.4471 2.56159 44.0479 5.52402 43.2814C8.28966 42.5651 10.4007 40.0195 10.4007 37.5526C10.4007 37.5523 10.4007 37.5515 10.4007 37.5515C10.4017 33.4385 13.0251 31.0998 15.0522 31.7705C16.7271 32.5936 18.6213 32.9262 20.5551 32.6172C22.2816 32.342 23.7775 31.6525 25.069 30.5592C26.273 29.6144 28.3786 30.6177 28.3786 33.929C28.3786 35.8287 29.5742 37.0614 30.9863 36.6947C32.3301 36.3457 33.3765 34.6628 33.3765 32.92C33.3765 31.1772 32.3297 29.9154 30.9859 30.1108ZM20.4734 28.539C16.9181 28.9398 13.7135 25.9171 13.7135 21.7434C13.7135 17.5705 16.9181 14.5488 20.4734 14.9497C23.6534 15.3081 25.9949 18.3355 25.9949 21.7423C25.9949 25.1514 23.6534 28.1802 20.4734 28.539Z" fill="white"/>
<path d="M31.7419 15.2043H35.3717V16.7488L35.5526 16.543L35.7831 16.2598C36.6327 15.3589 37.5339 14.9472 38.6925 14.896H39.1304V18.1899C38.9496 18.1387 38.7695 18.113 38.5894 18.0872C36.5303 17.9064 35.5264 18.9629 35.5264 20.9962V28.5372H31.7419V15.2043Z" fill="white"/>
<path d="M42.959 15.0241C42.2122 15.076 41.5433 15.1269 40.7711 15.2554V18.1383C40.9766 18.0871 41.1839 18.0617 41.3887 18.0359C42.8305 17.8551 44.1173 17.8551 44.9408 17.9586C47.1284 18.2164 48.0038 19.066 48.0038 20.4301V21.356C47.3092 20.8408 46.485 20.5329 45.249 20.4033C44.6568 20.3263 44.0654 20.3521 43.4735 20.4301C40.591 20.7892 38.968 22.5397 38.9179 24.6253C38.814 26.7617 40.7199 28.743 43.9375 28.743C45.3525 28.7688 46.4588 28.4083 47.4889 27.6879C47.6178 27.5848 47.7728 27.4566 47.9003 27.3535V28.5375H51.6332V20.6614C51.6328 16.8261 49.2125 14.7928 42.959 15.0241ZM47.2057 25.9375C46.8717 26.1702 46.4588 26.3238 45.867 26.4015C45.5587 26.4527 45.2494 26.4527 44.9153 26.4273C43.4477 26.2984 42.7001 25.5254 42.6765 24.5741C42.7532 23.3639 43.8856 22.4631 45.867 22.7212C46.5877 22.7975 47.1803 23.0814 47.5412 23.4158C48.2608 24.085 48.1577 25.3206 47.2057 25.9375Z" fill="white"/>
<path d="M54.4727 15.204H58.1017V16.6462C58.2041 16.5427 58.309 16.4396 58.4103 16.3365C59.4651 15.4106 60.5471 14.9731 61.8339 14.9473C65.0763 14.8696 67.0849 17.0572 67.0849 20.8675V28.5377H63.3015V21.3558C63.3269 19.3991 62.6316 18.3959 61.2671 18.0357C59.3885 17.5724 58.2553 18.6014 58.2553 20.6612V28.5373H54.4727V15.204Z" fill="white"/>
<path d="M79.6408 15.204V16.7486C78.0454 14.8438 74.6477 14.4582 72.0483 16.3114C70.6319 17.315 69.6534 18.8592 69.3702 20.6612C69.2943 21.0984 69.2685 21.5109 69.2685 21.948C69.242 22.3601 69.2685 22.7976 69.3186 23.2094C69.6018 25.552 70.9409 27.3791 72.9484 28.2803C75.4962 29.4389 78.097 28.847 79.4608 27.277V28.2552C79.4608 30.2101 78.2252 31.3425 75.4962 31.3948C74.7762 31.4202 74.0558 31.3175 73.3347 31.1113V34.4063C74.1328 34.5345 74.9047 34.5867 75.6763 34.5867C80.7726 34.5101 83.271 32.1922 83.271 28.46V15.204H79.6408ZM79.6408 22.489C79.4353 24.2638 78.4575 25.3708 77.0419 25.6032C74.9821 25.9634 73.3867 24.7274 73.1289 22.4625C73.1038 22.2555 73.0777 22.0769 73.0777 21.8699C73.0777 21.6644 73.1042 21.4589 73.1289 21.2523C73.3867 19.1933 74.5954 18.0608 76.3731 18.0608C78.1478 18.0608 79.3841 19.1933 79.6408 21.2788C79.6928 21.6648 79.6928 22.0769 79.6408 22.489Z" fill="white"/>
<path d="M99.1242 21.7864C99.0559 17.8789 96.4076 15.0965 92.6257 14.8271C91.7038 14.7726 90.7877 14.8805 89.9272 15.1662C89.6886 15.2465 89.4537 15.3449 89.2297 15.4473C86.8406 16.5565 85.1802 18.9892 85.1802 21.8038C85.1802 24.1763 86.3573 26.2666 88.1582 27.5305L88.1862 27.5475C88.8456 27.9927 89.6022 28.3481 90.441 28.5867C93.1354 29.3717 95.6977 28.6698 97.6886 26.6217C97.8062 26.4964 97.8919 26.3871 98.0088 26.2593L95.1302 24.2692C95.0598 24.3288 95.013 24.3959 94.9422 24.4547C94.4019 25.0208 93.8761 25.3512 93.2959 25.5041C92.3286 25.7851 91.3897 25.6983 90.6559 25.2717C89.6164 24.7002 89.0547 23.6785 89.1197 22.8129L99.0766 22.8717C99.1024 22.5039 99.122 22.1608 99.1242 21.7864ZM89.2736 20.4452C89.3314 20.2476 89.3655 20.0429 89.4465 19.8522C89.9769 18.3984 91.247 17.535 92.7066 17.5848C94.3296 17.6283 95.4948 18.6911 95.6952 20.1173L95.7373 20.3439L95.7435 20.5073L89.2736 20.4452Z" fill="white"/>
<path d="M100.223 15.2043H101.717V11.8065L103.646 11.0088V15.2043H107.225L106.864 16.6207H103.647V23.6472L103.674 23.8784L103.699 24.882C103.724 26.4527 104.703 27.3027 106.71 27.1746C106.864 27.1746 107.019 27.1477 107.174 27.1226V28.6146C107.02 28.6403 106.864 28.6658 106.71 28.6658C102.927 28.9758 101.718 27.6625 101.718 23.6983V16.6207H99.9922L100.223 15.2043Z" fill="white"/>
<path d="M108.845 10.6536L110.801 9.87842V17.366C111.032 17.0323 111.316 16.7226 111.624 16.4405C112.372 15.7452 113.273 15.2819 114.275 15.076C118.162 14.2522 121.046 16.7491 121.046 20.7907V28.5382H119.09V21.4333C119.09 18.1637 117.597 16.5171 114.997 16.5683C112.397 16.5948 110.801 18.3191 110.801 21.0982V28.5375H108.845V10.6536Z" fill="white"/>
<path d="M155.808 15.2044H157.712V17.0842C157.789 16.981 157.842 16.8779 157.92 16.7748C158.845 15.488 160.029 14.8446 161.573 14.8188C161.753 14.8188 161.934 14.8188 162.115 14.8446V16.672C161.934 16.6466 161.728 16.6209 161.521 16.6209C160.338 16.5689 159.309 16.981 158.613 17.753C158.021 18.4475 157.765 19.1686 157.765 20.3527V28.5378H155.808V15.2044H155.808Z" fill="white"/>
<path d="M179.546 10.2817C180.928 10.2817 182 11.355 182 12.6919C182 14.0597 180.928 15.1181 179.531 15.1181C178.148 15.1181 177.047 14.0593 177.047 12.6919C177.047 11.355 178.148 10.2817 179.531 10.2817H179.546ZM179.516 10.7665C178.457 10.7665 177.664 11.6339 177.664 12.6916C177.664 13.7648 178.457 14.6177 179.546 14.6177C180.604 14.6319 181.383 13.7648 181.383 12.6916C181.383 11.6335 180.604 10.7665 179.53 10.7665H179.516ZM179.149 13.9417H178.59V11.546C178.811 11.501 179.119 11.4571 179.516 11.4571C179.972 11.4571 180.178 11.5308 180.354 11.6484C180.486 11.7515 180.589 11.9429 180.589 12.1629C180.589 12.4421 180.383 12.648 180.089 12.7358V12.7653C180.324 12.839 180.457 13.0303 180.53 13.3535C180.603 13.7209 180.648 13.868 180.706 13.9417H180.104C180.03 13.8538 179.986 13.6479 179.913 13.3687C179.869 13.1037 179.721 12.986 179.412 12.986H179.148V13.9417H179.149ZM179.163 12.5895H179.428C179.737 12.5895 179.987 12.4864 179.987 12.2366C179.987 12.0158 179.824 11.8692 179.472 11.8692C179.325 11.8692 179.223 11.8833 179.163 11.8986V12.5895Z" fill="white"/>
<path d="M147.302 14.844C142.437 14.1487 138.885 17.2894 138.885 21.8196C138.885 26.3495 142.437 29.4902 147.302 28.7949C150.955 28.2546 153.222 25.5514 153.222 21.8196C153.222 18.0875 150.955 15.385 147.302 14.844ZM146.966 27.1981C146.357 27.3037 145.748 27.3037 145.166 27.1981C142.489 26.7467 140.793 24.6808 140.793 21.8193C140.793 20.0968 141.376 18.7196 142.436 17.7385C143.363 16.8642 144.609 16.3875 146.066 16.3875C147.522 16.3875 148.769 16.8642 149.696 17.7385C150.516 18.5068 151.021 19.4606 151.233 20.653C151.816 24.045 149.987 26.6676 146.966 27.1981Z" fill="white"/>
<path d="M163.707 15.2002H165.664V22.4856C165.664 25.2908 166.615 26.6033 168.829 27.0147C169.421 27.1189 170.013 27.1189 170.605 26.9893C172.844 26.5772 173.873 25.2392 173.873 22.8969V15.2002H175.805V27.9675C175.805 31.6477 173.127 34.0677 167.671 33.734C167.336 33.734 167.028 33.6821 166.718 33.6556V32.0086C167.028 32.0609 167.336 32.0852 167.645 32.1117C171.892 32.343 173.849 30.6198 173.849 27.6331V26.4229C173.746 26.5768 173.617 26.7065 173.514 26.835C172.356 28.1218 171.018 28.7132 169.163 28.7132C166.618 28.7132 165.093 27.4784 164.326 26.0939C164.204 25.8732 164.101 25.5929 164.017 25.3057C163.8 24.5711 163.707 23.7364 163.707 22.772V15.2002H163.707Z" fill="white"/>
<path d="M136.806 22.3717C136.832 22.0856 136.834 21.7915 136.83 21.5232C136.652 17.3836 133.102 14.4117 128.974 15.0206C126.549 15.383 124.6 16.8963 123.682 19.125L123.692 19.0919C123.355 19.9408 123.173 20.8907 123.173 21.9113C123.173 25.243 125.107 27.8133 128.066 28.623L128.07 28.619C130.251 29.2297 132.608 28.8673 134.403 27.6063C134.94 27.2225 135.409 26.7923 135.815 26.2916L134.362 25.2699C134.279 25.3806 134.177 25.4587 134.1 25.5444C132.27 27.3035 129.836 27.6909 127.829 26.6481C126.216 25.8214 125.283 24.3854 125.175 22.6701C125.177 22.5638 125.181 22.4581 125.191 22.327L136.806 22.3717ZM125.504 19.8755C126.237 17.7292 128.073 16.425 130.284 16.4563C132.462 16.5049 134.197 17.8462 134.749 19.7916C134.824 19.9996 134.868 20.2262 134.887 20.4444L134.924 20.696L134.936 20.9397L125.3 20.8878C125.317 20.5454 125.413 20.1979 125.504 19.8755Z" fill="white"/>
<path d="M90.7986 43.4738H92.537V39.5521H97.0717V38.0039H92.537V35.7931H97.1671V34.2456H90.7986V43.4738Z" fill="white"/>
<path d="M103.048 34.2456H101.31V43.4738H103.048V34.2456Z" fill="white"/>
<path d="M106.933 35.7931H109.684V43.4738H111.422V35.7931H114.173V34.2456H106.933V35.7931Z" fill="white"/>
<path d="M124.35 40.5347L119.837 34.2757L119.816 34.2456H118.072V43.4738H119.81V37.0091L124.418 43.4433L124.44 43.4738H126.088V34.2456H124.35V40.5347Z" fill="white"/>
<path d="M130.832 43.4738H137.2V41.926H132.57V39.5521H137.105V38.0039H132.57V35.7931H137.2V34.2456H130.832V43.4738Z" fill="white"/>
<path d="M144.967 37.8706L144.955 37.8673C143.917 37.6045 143.02 37.3772 143.02 36.7287C143.02 36.086 143.595 35.671 144.486 35.671C145.494 35.671 146.409 36.0308 147.063 36.6848L147.121 36.7432L148.124 35.4412L148.077 35.3962C147.195 34.5422 146.033 34.1094 144.622 34.1094C142.663 34.1094 141.241 35.2567 141.241 36.8376C141.241 38.8183 143.061 39.2692 144.522 39.6312L144.543 39.6367C145.614 39.9141 146.538 40.1537 146.538 40.9093C146.538 41.4474 146.079 42.0759 144.786 42.0759C143.336 42.0759 142.396 41.3054 141.965 40.8461L141.905 40.7818L140.933 42.1271L140.974 42.1707C141.872 43.1303 143.167 43.6372 144.717 43.6372C146.451 43.6372 148.303 42.8812 148.303 40.7593C148.304 38.7195 146.454 38.2486 144.967 37.8706Z" fill="white"/>
<path d="M155.872 37.8706L155.86 37.8673C154.822 37.6045 153.925 37.3772 153.925 36.7287C153.925 36.086 154.5 35.671 155.391 35.671C156.399 35.671 157.314 36.0308 157.968 36.6848L158.026 36.7432L159.029 35.4412L158.982 35.3962C158.1 34.5422 156.938 34.1094 155.527 34.1094C153.568 34.1094 152.146 35.2567 152.146 36.8376C152.146 38.8183 153.966 39.2692 155.428 39.6312L155.448 39.6367C156.519 39.9141 157.443 40.1537 157.443 40.9093C157.443 41.4474 156.984 42.0759 155.691 42.0759C154.241 42.0759 153.301 41.3054 152.87 40.8461L152.81 40.7818L151.838 42.1271L151.879 42.1707C152.777 43.1303 154.072 43.6372 155.622 43.6372C157.356 43.6372 159.208 42.8812 159.208 40.7593C159.208 38.7195 157.358 38.2486 155.872 37.8706Z" fill="white"/>
</svg>