<svg width="56" height="20" viewBox="0 0 56 20" fill="none" xmlns="http://www.w3.org/2000/svg">
<g clip-path="url(#clip0_1830_5737)">
<path d="M6.61186 5.10532H1.13672V0H18.153V5.10532H12.6766V20H6.61186V5.10532ZM19.0946 0H35.64V5.10532H25.1598V7.56799H35.64V12.3721H25.1598V14.8947H35.64V20H19.0946V0ZM36.6403 0H46.591C53.127 0 55.4224 4.92516 55.4224 9.97037C55.4224 16.0964 52.2424 20 45.4131 20H36.6403V0ZM42.7055 14.8947H45.0596C48.8277 14.8947 49.3589 11.7722 49.3589 9.91043C49.3589 8.64862 48.9467 5.16543 44.5888 5.16543H42.6452L42.7055 14.8947Z" fill="white"/>
</g>
<defs>
<clipPath id="clip0_1830_5737">
<rect width="55" height="20" fill="white" transform="translate(0.779297)"/>
</clipPath>
</defs>
</svg>
