<svg width="110" height="34" viewBox="0 0 110 34" fill="none" xmlns="http://www.w3.org/2000/svg">
<path d="M71.082 8.1181C66.292 8.1411 62.39 12.0781 62.412 16.9801C62.434 21.8821 66.375 25.7821 71.165 25.7601C75.955 25.7381 79.858 21.8001 79.835 16.9001C79.812 12.0001 75.872 8.0971 71.08 8.1201L71.082 8.1181ZM71.148 22.1651C69.79 22.1731 68.485 21.6401 67.52 20.6851C66.555 19.7301 66.02 18.4291 66.005 17.0711C65.99 15.7131 66.53 14.4081 67.485 13.4431C68.44 12.4781 69.741 11.9431 71.099 11.9281C72.457 11.9131 73.762 12.4531 74.727 13.4081C75.692 14.3631 76.227 15.6641 76.242 17.0221C76.256 19.7471 73.872 22.1521 71.148 22.1661V22.1651ZM90.488 12.2731C87.983 12.2851 86.032 14.3631 86.044 16.8681L86.084 25.2531L82.272 25.2711L82.195 8.6081L86.007 8.5901L86.02 11.2031C86.02 11.2031 87.64 8.5831 90.908 8.5681L91.998 8.5621L92.016 12.2641L90.488 12.2731ZM52.462 8.7501L55.348 20.1721L58.344 8.7221L62.156 8.7051L57.44 25.4001L53.738 25.4171L50.744 13.7791L47.858 25.4441L44.155 25.4611L39.177 8.8211L42.879 8.8041L46.199 20.2241L48.869 8.7761L52.462 8.7501ZM103.137 16.1361C105.742 14.6001 107.582 11.7591 107.567 8.4921L103.755 8.5101C103.769 11.3421 101.491 13.6401 98.769 13.6501L98.224 13.6521L98.164 0.475098L94.352 0.493097L94.469 25.2131L98.279 25.1961L98.243 17.3561L98.678 17.3541C99.114 17.3521 99.551 17.5681 99.662 17.8941L105.032 25.1641L109.497 25.1441L103.137 16.1361Z" fill="white"/>
<path d="M30.353 8.3101C26.216 8.3301 23.07 11.0671 21.893 15.4281C19.918 12.3881 18.377 8.9111 17.493 5.9751L13.138 5.9951L13.192 17.5381C13.1968 18.6356 12.7656 19.6901 11.9932 20.4697C11.2208 21.2494 10.1705 21.6905 9.07299 21.6961C7.97551 21.7009 6.92103 21.2697 6.14134 20.4973C5.36165 19.7249 4.92055 18.6746 4.91499 17.5771L4.85999 6.0341L0.502991 6.0541L0.556991 17.5971C0.579991 22.3871 4.40699 26.1831 9.09099 26.1601C13.775 26.1371 17.569 22.3081 17.547 17.5171L17.537 15.5571C18.415 17.2941 19.513 19.1401 20.72 20.7691L18.057 33.5221L22.521 33.5021L24.441 24.2361C26.188 25.3181 28.141 25.9611 30.437 25.9501C35.229 25.9271 39.132 21.9901 39.107 16.9801C39.0888 14.6718 38.1581 12.4645 36.5182 10.84C34.8783 9.21542 32.6623 8.30559 30.354 8.3091L30.353 8.3101ZM30.415 21.4871C28.673 21.4951 26.928 20.7411 25.507 19.5491L25.934 17.8061V17.7061C26.254 15.8521 27.216 12.6901 30.484 12.6761C31.6363 12.6742 32.7427 13.1275 33.5624 13.9373C34.3821 14.7471 34.8489 15.8479 34.861 17.0001C34.763 19.5051 32.704 21.4751 30.416 21.4861L30.415 21.4871Z" fill="white"/>
</svg>
